<?xml version="1.0" encoding="utf-8"?>
<!-- Generator: Adobe Illustrator 15.0.0, SVG Export Plug-In . SVG Version: 6.00 Build 0)  -->
<!DOCTYPE svg PUBLIC "-//W3C//DTD SVG 1.1//EN" "http://www.w3.org/Graphics/SVG/1.1/DTD/svg11.dtd">
<svg version="1.1" id="图层_1" xmlns="http://www.w3.org/2000/svg" xmlns:xlink="http://www.w3.org/1999/xlink" x="0px" y="0px"
	 width="714.743px" height="714.662px" viewBox="0 0 714.743 714.662" enable-background="new 0 0 714.743 714.662"
	 xml:space="preserve">
<g>
	<path fill-rule="evenodd" clip-rule="evenodd" fill="#55ABE3" d="M242.163,469.479l154.551-43.809L286.322,316.13L242.163,469.479
		L242.163,469.479z M654.947,169.425L544.555,59.881L301.686,300.868L412.078,410.4L654.947,169.425L654.947,169.425z
		 M622.776,575.072c0,38.061-30.915,68.941-69.051,68.941H139.401c-38.145,0-69.054-30.881-69.054-68.941V161.411
		c0-38.084,30.909-68.943,69.054-68.943h276.216l69.054-68.944H116.384C52.815,23.523,1.294,74.961,1.294,138.43v459.621
		c0,63.47,51.522,114.905,115.089,114.905h460.36c63.558,0,115.089-51.438,115.089-114.905V230.353l-69.057,68.944V575.072
		L622.776,575.072z M706.256,77.408l-69-68.46c-11.432-11.345-30.583-10.728-42.777,1.368l-33.123,32.856L671.75,152.714
		l33.121-32.867C717.066,107.751,717.685,88.754,706.256,77.408L706.256,77.408z"/>
</g>
</svg>
