<?xml version="1.0" encoding="utf-8"?>
<!-- Generator: Adobe Illustrator 15.0.0, SVG Export Plug-In . SVG Version: 6.00 Build 0)  -->
<!DOCTYPE svg PUBLIC "-//W3C//DTD SVG 1.1//EN" "http://www.w3.org/Graphics/SVG/1.1/DTD/svg11.dtd">
<svg version="1.1" id="图层_1" xmlns="http://www.w3.org/2000/svg" xmlns:xlink="http://www.w3.org/1999/xlink" x="0px" y="0px"
	 width="666.451px" height="652.938px" viewBox="23.388 -6 666.451 652.938" enable-background="new 23.388 -6 666.451 652.938"
	 xml:space="preserve">
<g>
	<path fill="#FFA290" d="M669.791,105.951H157.419l-8.882-74.89c-1.449-12.22-12.49-22.218-24.533-22.218h-4.87
		c-2.057,0-4.013,0.298-5.84,0.842H50.667c-14.453,0-26.28,11.079-26.28,24.619s11.825,24.619,26.28,24.619h52.506l50.135,422.712
		c1.449,12.223,12.49,22.219,24.534,22.219h4.87c2.034,0,3.971-0.29,5.78-0.823h414.342c14.452,0,26.278-11.079,26.278-24.618
		c0-13.541-11.825-24.62-26.278-24.62H198.675l-6.142-51.778h411.591c12.045,0,24.077-9.822,26.74-21.828l55.983-252.408
		C689.511,115.773,681.836,105.952,669.791,105.951L669.791,105.951L669.791,105.951z"/>
	<path fill="#FFA290" d="M194.914,586.177c0,33.028,26.2,59.802,58.518,59.802c32.319,0,58.518-26.773,58.518-59.802
		c0-33.029-26.199-59.805-58.518-59.805C221.113,526.373,194.914,553.15,194.914,586.177L194.914,586.177z"/>
	<path fill="#FFA290" d="M485.001,586.177c0,33.028,26.198,59.802,58.517,59.802c32.32,0,58.521-26.773,58.521-59.802
		c0-33.029-26.2-59.805-58.521-59.805C511.199,526.373,485.001,553.15,485.001,586.177L485.001,586.177z"/>
</g>
</svg>
