<?xml version="1.0" encoding="utf-8"?>
<!-- Generator: Adobe Illustrator 15.0.0, SVG Export Plug-In . SVG Version: 6.00 Build 0)  -->
<!DOCTYPE svg PUBLIC "-//W3C//DTD SVG 1.1//EN" "http://www.w3.org/Graphics/SVG/1.1/DTD/svg11.dtd">
<svg version="1.1" id="图层_1" xmlns="http://www.w3.org/2000/svg" xmlns:xlink="http://www.w3.org/1999/xlink" x="0px" y="0px"
	 width="516.877px" height="652.938px" viewBox="0 0 516.877 652.938" enable-background="new 0 0 516.877 652.938"
	 xml:space="preserve">
<g>
	<path fill="#86D5EB" d="M258.438,646.387c0,0-258.438-272.428-258.438-407.398C0,104.018,115.738-5.449,258.438-5.449
		c142.745,0,258.438,109.467,258.438,244.438C516.879,374,258.438,646.387,258.438,646.387L258.438,646.387z M258.438,76.031
		c-95.146,0-172.292,72.964-172.292,162.958c0,89.994,77.144,162.958,172.292,162.958c95.149,0,172.293-72.966,172.293-162.958
		C430.731,148.995,353.588,76.031,258.438,76.031L258.438,76.031z"/>
</g>
</svg>
