<?xml version="1.0" encoding="utf-8"?>
<!-- Generator: Adobe Illustrator 15.0.0, SVG Export Plug-In . SVG Version: 6.00 Build 0)  -->
<!DOCTYPE svg PUBLIC "-//W3C//DTD SVG 1.1//EN" "http://www.w3.org/Graphics/SVG/1.1/DTD/svg11.dtd">
<svg version="1.1" id="图层_1" xmlns="http://www.w3.org/2000/svg" xmlns:xlink="http://www.w3.org/1999/xlink" x="0px" y="0px"
	 width="666.451px" height="652.938px" viewBox="23.388 -6 666.451 652.938" enable-background="new 23.388 -6 666.451 652.938"
	 xml:space="preserve">
<g>
	<path fill-rule="evenodd" clip-rule="evenodd" fill="#9CDE87" d="M581.814,13.16h-40.868c-11.303,0-24.346,6.957-24.346,18.26
		s13.043,22.607,24.346,22.607h40.868c24.346,0,40.866,16.521,40.866,40.866v470.401c0,24.346-16.521,40.865-40.866,40.865H141.846
		c-24.346,0-51.301-16.52-51.301-40.865V94.894c0-24.346,16.521-40.866,40.867-40.866h51.3c11.304,0,15.651-11.304,15.651-22.607
		s-4.348-18.26-15.651-18.26h-51.3c-57.388,0-81.733,35.65-81.733,82.603v465.183c0,50.432,30.433,86.081,86.081,86.081h441.708
		c55.647,0,86.08-29.563,86.08-86.081V95.763C663.547,48.81,634.854,13.16,581.814,13.16L581.814,13.16z M182.712,197.495
		c0,11.304,9.564,20.868,20.868,20.868h306.934c11.304,0,20.868-9.564,20.868-20.868c0-11.303-9.564-20.868-20.868-20.868H203.581
		C192.277,176.627,182.712,186.191,182.712,197.495L182.712,197.495z M509.646,289.662H203.581
		c-11.304,0-20.868,9.564-20.868,20.868c0,11.304,9.564,20.869,20.868,20.869h306.934c11.304,0,20.868-9.565,20.868-20.869
		C530.514,298.356,520.948,289.662,509.646,289.662L509.646,289.662z M509.646,412.262H203.581
		c-11.304,0-20.868,9.563-20.868,20.866c0,11.305,9.564,20.869,20.868,20.869h306.934c11.304,0,20.868-9.564,20.868-20.869
		C530.514,420.956,520.948,412.262,509.646,412.262L509.646,412.262z M286.183,64.461h142.598c16.521,0,30.433-16.521,30.433-35.649
		s-13.912-35.65-31.302-35.65H286.183c-17.39,0-31.302,16.521-31.302,35.65S268.793,64.461,286.183,64.461L286.183,64.461z"/>
</g>
</svg>
