<?xml version="1.0" encoding="utf-8"?>
<!-- Generator: Adobe Illustrator 15.0.0, SVG Export Plug-In . SVG Version: 6.00 Build 0)  -->
<!DOCTYPE svg PUBLIC "-//W3C//DTD SVG 1.1//EN" "http://www.w3.org/Graphics/SVG/1.1/DTD/svg11.dtd">
<svg version="1.1" id="图层_1" xmlns="http://www.w3.org/2000/svg" xmlns:xlink="http://www.w3.org/1999/xlink" x="0px" y="0px"
	 width="715.266px" height="695.828px" viewBox="0 0 715.266 695.828" enable-background="new 0 0 715.266 695.828"
	 xml:space="preserve">
<g>
	<path fill="#10C056" d="M23.818,694.002l0.092-4.958c0.969-66.176,21.559-129.756,59.524-183.877
		c38.08-54.265,90.894-95.634,152.772-119.724l0,0c-57.102-39.657-91.202-104.469-91.202-173.394
		c0-116.683,95.627-211.602,213.187-211.602c117.542,0,213.189,94.913,213.189,211.602c0,69.014-34.151,133.895-91.392,173.554l0,0
		c61.768,24.111,114.523,65.506,152.484,119.717c37.901,54.104,58.479,117.656,59.426,183.688l0.092,4.982l-60.717,0.021
		l-0.081-4.811c-2.142-132.058-103.028-245.676-234.692-264.35l-2.647-0.36c-9.849-1.253-21.402-1.883-34.358-1.883
		c-18.669,0-33.986,1.381-34.135,1.381C189.802,439.72,85.869,553.741,83.711,689.204l-0.086,4.811L23.818,694.002L23.818,694.002
		L23.818,694.002z M358.267,53.581c-88.076,0-159.73,71.11-159.73,158.505c0,87.423,71.667,158.544,159.73,158.544
		c88.051,0,159.701-71.133,159.701-158.544C517.968,124.69,446.317,53.581,358.267,53.581L358.267,53.581z"/>
</g>
<polygon fill="#10C056" points="215.133,84.414 333.133,22.414 396.133,31.414 474.133,62.414 527.133,148.414 540.133,243.414 
	440.133,370.414 326.133,386.414 208.133,325.414 166.133,197.414 "/>
<polyline fill="#10C056" points="250.133,410.414 154.133,466.521 81.133,567.515 64.133,694.011 651.633,694.015 648.633,600.414 
	498.633,425.914 "/>
</svg>
