<?xml version="1.0" encoding="utf-8"?>
<!-- Generator: Adobe Illustrator 15.0.0, SVG Export Plug-In . SVG Version: 6.00 Build 0)  -->
<!DOCTYPE svg PUBLIC "-//W3C//DTD SVG 1.1//EN" "http://www.w3.org/Graphics/SVG/1.1/DTD/svg11.dtd">
<svg version="1.1" id="图层_1" xmlns="http://www.w3.org/2000/svg" xmlns:xlink="http://www.w3.org/1999/xlink" x="0px" y="0px"
	 width="734.418px" height="712.565px" viewBox="0 0 734.418 712.565" enable-background="new 0 0 734.418 712.565"
	 xml:space="preserve">
<g>
	<path fill="#10C056" d="M652.79,0H473.441c-44.87,0-81.381,35.673-81.381,79.535v175.633c0,43.912,36.511,79.59,81.381,79.59
		h179.41c21.763,0,42.232-8.282,57.59-23.334c15.356-15.005,23.782-34.977,23.782-56.205V79.595v-0.004
		C734.222,35.735,697.724,0.052,652.79,0L652.79,0z"/>
	<path fill="#10C056" d="M263.224,0H83.878C39.006,0,2.498,35.673,2.498,79.535v175.633c0,43.912,36.508,79.59,81.38,79.59h179.404
		c21.768,0,42.232-8.282,57.591-23.334c15.359-15.005,23.781-34.977,23.781-56.205V79.595v-0.004
		C344.658,35.735,308.154,0.052,263.224,0L263.224,0z"/>
	<path fill="#10C056" d="M652.79,377.804H473.441c-44.87,0-81.381,35.675-81.381,79.536v175.634
		c0,43.914,36.511,79.591,81.381,79.591h179.41c21.763,0,42.232-8.281,57.59-23.335c15.356-15.008,23.782-34.976,23.782-56.202
		V457.396v-0.01C734.222,413.534,697.724,377.852,652.79,377.804L652.79,377.804z"/>
	<path fill="#10C056" d="M263.224,377.804H83.878c-44.873,0-81.38,35.675-81.38,79.536v175.634c0,43.914,36.508,79.591,81.38,79.591
		h179.404c21.768,0,42.232-8.281,57.591-23.335c15.359-15.008,23.781-34.976,23.781-56.202V457.396v-0.01
		C344.658,413.534,308.154,377.852,263.224,377.804L263.224,377.804z"/>
</g>
</svg>
