<?xml version="1.0" encoding="utf-8"?>
<!-- Generator: Adobe Illustrator 15.0.0, SVG Export Plug-In . SVG Version: 6.00 Build 0)  -->
<!DOCTYPE svg PUBLIC "-//W3C//DTD SVG 1.1//EN" "http://www.w3.org/Graphics/SVG/1.1/DTD/svg11.dtd">
<svg version="1.1" id="图层_1" xmlns="http://www.w3.org/2000/svg" xmlns:xlink="http://www.w3.org/1999/xlink" x="0px" y="0px"
	 width="734.418px" height="742.908px" viewBox="0 0 734.418 742.908" enable-background="new 0 0 734.418 742.908"
	 xml:space="preserve">
<g>
	<path fill-rule="evenodd" clip-rule="evenodd" fill="#10C056" d="M257.957,742.908c-39.671,0-71.945-32.643-71.945-72.768
		c0-40.123,32.274-72.766,71.945-72.766c39.67,0,71.944,32.643,71.944,72.766C329.9,710.265,297.626,742.908,257.957,742.908
		L257.957,742.908z"/>
	<path fill-rule="evenodd" clip-rule="evenodd" fill="#10C056" d="M586.278,742.908c-39.67,0-71.943-32.643-71.943-72.768
		c0-40.123,32.273-72.766,71.943-72.766c39.671,0,71.945,32.643,71.945,72.766C658.224,710.265,625.949,742.908,586.278,742.908
		L586.278,742.908z"/>
	<path fill-rule="evenodd" clip-rule="evenodd" fill="#10C056" d="M249.953,555.687c-27.414,0-43.31-10.6-51.932-19.783
		c-15.529-16.539-16.799-37.449-16.579-46.061l-64.92-409.961c-1.446-9.056-5.548-15.7-12.906-20.879
		C78.494,41.32,26.546,46.176,8.651,49.539L0,4.029C0.837,3.87,20.804,0.114,45.928,0.003c35.804-0.163,64.127,6.924,84.254,21.051
		c17.577,12.336,28.674,30.163,32.09,51.553l65.846,415.811l-0.364,2.469c-0.043,1.291-0.108,9.049,4.17,13.447
		c4.777,4.91,15.119,5.219,20.856,4.967l1.016-0.021h415.757v46.324H254.271C252.802,555.66,251.361,555.687,249.953,555.687
		L249.953,555.687z"/>
	<path fill-rule="evenodd" clip-rule="evenodd" fill="#10C056" d="M576.011,483.175c-3.593,0.002-7.288-0.105-11.089-0.326H257.279
		l-3.484-46.324h312.533l0.714,0.045c34.446,2.131,59.93-7.855,75.756-29.664c11.624-16.02,14.139-33.014,14.16-33.178l0.055-0.428
		l30.726-217.26c1.389-15.479-1.366-27.166-8.188-34.743c-10.621-11.799-29.155-12.559-30.702-12.601l-0.2,0.005l0.116-0.008
		l-417.479,0.992l-8.673-47.316h426.077c4.526-0.034,40.317,0.695,64.827,27.425c16.26,17.733,23.087,41.661,20.292,71.121
		l-0.124,1.056L702.9,379.636c-0.523,4.004-4.464,29.467-22.611,54.477C663.716,456.953,632.396,483.175,576.011,483.175
		L576.011,483.175z"/>
</g>
<path fill-rule="evenodd" clip-rule="evenodd" fill="#10C056" d="M585.278,134.693c0,0,62.098-0.357,68.2,29.664
	c4.134,20.336-25.582,164.315-41.533,221.335c-7.833,28.001-60.553,26.841-60.553,26.841l-293.437,1.16l-35.344-279"/>
</svg>
