<?xml version="1.0" encoding="utf-8"?>
<!-- Generator: Adobe Illustrator 15.0.0, SVG Export Plug-In . SVG Version: 6.00 Build 0)  -->
<!DOCTYPE svg PUBLIC "-//W3C//DTD SVG 1.1//EN" "http://www.w3.org/Graphics/SVG/1.1/DTD/svg11.dtd">
<svg version="1.1" id="图层_1" xmlns="http://www.w3.org/2000/svg" xmlns:xlink="http://www.w3.org/1999/xlink" x="0px" y="0px"
	 width="715.266px" height="695.828px" viewBox="0 0 715.266 695.828" enable-background="new 0 0 715.266 695.828"
	 xml:space="preserve">
<g>
	<path fill-rule="evenodd" clip-rule="evenodd" fill="#A8A8A8" d="M23.818,694.002l0.092-4.958
		c0.969-66.176,21.559-129.756,59.524-183.877c38.08-54.265,90.894-95.634,152.772-119.724l0,0
		c-57.102-39.657-91.202-104.469-91.202-173.393c0-116.683,95.627-211.602,213.186-211.602c117.542,0,213.19,94.913,213.19,211.602
		c0,69.014-34.152,133.895-91.392,173.553l0,0c61.768,24.112,114.524,65.506,152.485,119.717
		c37.901,54.105,58.478,117.657,59.425,183.688l0.092,4.982l-60.717,0.022l-0.081-4.811
		c-2.141-132.057-103.028-245.676-234.692-264.349l-2.647-0.361c-9.849-1.253-21.403-1.883-34.359-1.883
		c-18.669,0-33.986,1.381-34.135,1.381C189.802,439.72,85.869,553.741,83.711,689.204l-0.086,4.811L23.818,694.002L23.818,694.002
		L23.818,694.002z M358.267,53.581c-88.076,0-159.731,71.11-159.731,158.505c0,87.423,71.667,158.544,159.731,158.544
		c88.05,0,159.701-71.133,159.701-158.544C517.968,124.69,446.317,53.581,358.267,53.581L358.267,53.581z"/>
</g>
</svg>
