<?xml version="1.0" encoding="utf-8"?>
<!-- Generator: Adobe Illustrator 15.0.0, SVG Export Plug-In . SVG Version: 6.00 Build 0)  -->
<!DOCTYPE svg PUBLIC "-//W3C//DTD SVG 1.1//EN" "http://www.w3.org/Graphics/SVG/1.1/DTD/svg11.dtd">
<svg version="1.1" id="图层_1" xmlns="http://www.w3.org/2000/svg" xmlns:xlink="http://www.w3.org/1999/xlink" x="0px" y="0px"
	 width="788px" height="695.828px" viewBox="0 0 788 695.828" enable-background="new 0 0 788 695.828" xml:space="preserve">
<g>
	<path fill="#A8A8A8" d="M568.134,696.181H481.02c-11.997,0-21.71-9.771-21.71-21.826V456.742c0-11.902-9.656-21.824-21.563-21.824
		h-87.463c-11.749,0-21.564,9.771-21.564,21.824v217.613c0,11.902-9.721,21.826-21.712,21.826h-87.115
		c-47.889,0-87.059-38.924-87.059-86.939V413.292c0-12.125-9.799-21.922-21.887-21.922H46.932c-48.13,0-59.075-27.428-24.736-61.263
		L331.811,25.034c34.371-33.866,90.02-33.835,124.362,0l309.649,305.073c34.375,33.866,23.272,61.263-24.729,61.263H677.08
		c-12.103,0-21.889,9.814-21.889,21.922v195.949C655.193,657.267,616.216,696.181,568.134,696.181L568.134,696.181z
		 M611.657,609.093v-195.9c0-36.135,29.267-65.45,65.425-65.45l44.619-0.07L425.619,56.042
		c-17.408-17.147-45.846-17.152-63.256-0.001l-296.6,291.702h45.182c36.146,0,65.423,29.297,65.423,65.45v195.9
		c0,23.863,19.581,43.385,43.522,43.385h65.291V456.63c0-35.973,29.185-65.354,65.1-65.354h87.462c36.065,0,65.1,29.52,65.1,65.354
		v195.848h65.29C592.19,652.478,611.657,633.042,611.657,609.093L611.657,609.093z"/>
</g>
</svg>
