<?xml version="1.0" encoding="utf-8"?>
<!-- Generator: Adobe Illustrator 15.0.0, SVG Export Plug-In . SVG Version: 6.00 Build 0)  -->
<!DOCTYPE svg PUBLIC "-//W3C//DTD SVG 1.1//EN" "http://www.w3.org/Graphics/SVG/1.1/DTD/svg11.dtd">
<svg version="1.1" id="图层_1" xmlns="http://www.w3.org/2000/svg" xmlns:xlink="http://www.w3.org/1999/xlink" x="0px" y="0px"
	 width="734.418px" height="712.565px" viewBox="0 0 734.418 712.565" enable-background="new 0 0 734.418 712.565"
	 xml:space="preserve">
<g>
	<path fill="#A8A8A8" d="M652.79,0H473.441c-44.87,0-81.381,35.673-81.381,79.535v175.633c0,43.912,36.511,79.59,81.381,79.59
		h179.41c21.763,0,42.232-8.282,57.59-23.334c15.356-15.005,23.782-34.977,23.782-56.205V79.595v-0.004
		C734.222,35.735,697.724,0.052,652.79,0L652.79,0z M696.009,257.899c0,10.701-4.227,20.721-11.878,28.21l-0.026,0.017l-0.034,0.04
		c-7.709,7.554-17.568,11.546-28.494,11.546H470.719c-22.307,0-40.433-17.882-40.433-39.877V76.86
		c0-21.948,18.126-39.812,40.433-39.812h184.759c22.354,0.021,40.531,17.907,40.531,39.873V257.899L696.009,257.899z"/>
	<path fill="#A8A8A8" d="M263.224,0H83.878C39.006,0,2.498,35.673,2.498,79.535v175.633c0,43.912,36.508,79.59,81.38,79.59h179.404
		c21.768,0,42.232-8.282,57.591-23.334c15.359-15.005,23.781-34.977,23.781-56.205V79.595v-0.004
		C344.658,35.735,308.154,0.052,263.224,0L263.224,0z M306.445,257.899c0,10.701-4.229,20.721-11.878,28.21l-0.026,0.017
		l-0.032,0.04c-7.708,7.554-17.563,11.546-28.493,11.546H81.154c-22.307,0-40.434-17.882-40.434-39.877V76.86
		c0-21.948,18.127-39.812,40.434-39.812h184.759c22.355,0.022,40.532,17.909,40.532,39.874V257.899L306.445,257.899z"/>
	<path fill="#A8A8A8" d="M652.79,377.804H473.441c-44.87,0-81.381,35.675-81.381,79.536v175.634
		c0,43.914,36.511,79.591,81.381,79.591h179.41c21.763,0,42.232-8.281,57.59-23.335c15.356-15.008,23.782-34.976,23.782-56.202
		V457.396v-0.01C734.222,413.534,697.724,377.852,652.79,377.804L652.79,377.804z M696.009,635.703
		c0,10.702-4.227,20.717-11.878,28.212l-0.026,0.022l-0.034,0.038c-7.709,7.55-17.568,11.545-28.494,11.545H470.719
		c-22.307,0-40.433-17.886-40.433-39.878V454.666c0-21.947,18.126-39.81,40.433-39.81h184.759
		c22.356,0.021,40.531,17.908,40.531,39.869V635.703L696.009,635.703z"/>
	<path fill="#A8A8A8" d="M263.224,377.804H83.878c-44.873,0-81.38,35.675-81.38,79.536v175.634c0,43.914,36.508,79.591,81.38,79.591
		h179.404c21.768,0,42.232-8.281,57.591-23.335c15.359-15.008,23.781-34.976,23.781-56.202V457.396v-0.01
		C344.658,413.534,308.154,377.852,263.224,377.804L263.224,377.804z M306.445,635.703c0,10.702-4.229,20.717-11.878,28.212
		l-0.026,0.022l-0.032,0.038c-7.708,7.55-17.563,11.545-28.493,11.545H81.154c-22.307,0-40.434-17.886-40.434-39.878V454.666
		c0-21.947,18.127-39.81,40.434-39.81h184.759c22.355,0.021,40.532,17.908,40.532,39.869V635.703L306.445,635.703z"/>
</g>
</svg>
