<?xml version="1.0" encoding="utf-8"?>
<!-- Generator: Adobe Illustrator 15.0.0, SVG Export Plug-In . SVG Version: 6.00 Build 0)  -->
<!DOCTYPE svg PUBLIC "-//W3C//DTD SVG 1.1//EN" "http://www.w3.org/Graphics/SVG/1.1/DTD/svg11.dtd">
<svg version="1.1" id="图形" xmlns="http://www.w3.org/2000/svg" xmlns:xlink="http://www.w3.org/1999/xlink" x="0px" y="0px"
	 width="696.03px" height="695px" viewBox="41.1 -41.273 696.03 695" enable-background="new 41.1 -41.273 696.03 695"
	 xml:space="preserve">
<g>
	<path fill-rule="evenodd" clip-rule="evenodd" fill="#C2CAD3" d="M438.478,304.624L725.926,18.295
		c13.608-13.538,13.667-35.483,0.146-49.109c-13.548-13.624-35.437-13.654-49.044-0.117L389.522,255.427L104.501-30.842
		c-13.49-13.537-35.437-13.596-49.045-0.059C41.908-17.364,41.879,4.611,55.398,18.237L340.36,304.418L53.028,590.571
		c-13.578,13.537-13.637,35.484-0.117,49.109c6.76,6.798,15.655,10.226,24.581,10.226c8.837,0,17.675-3.369,24.434-10.108
		l287.393-286.212l287.624,288.879c6.76,6.797,15.626,10.196,24.551,10.196c8.867,0,17.704-3.399,24.463-10.138
		c13.579-13.538,13.608-35.484,0.088-49.108L438.478,304.624L438.478,304.624z"/>
</g>
</svg>
